<svg width="17" height="16" viewBox="0 0 17 16" fill="none" xmlns="http://www.w3.org/2000/svg">
<path d="M1.18182 0.727295H8.45455C12.4712 0.727295 15.7273 3.98341 15.7273 8.00002C15.7273 12.0166 12.4712 15.2728 8.45455 15.2728H1.18182V0.727295Z" stroke="url(#paint0_linear_4311_11)" stroke-width="1.11111"/>
<path d="M13.0786 2.42527C11.8365 1.40606 10.3857 0.744559 8.65556 0.727295L1.36139 8.00002L8.65556 15.2728C10.3856 15.2554 11.8365 14.5753 13.0786 13.5562C13.0484 13.526 11.0999 11.6452 10.3941 10.9416C9.68832 10.238 7.92936 8.52763 7.40002 8.00002C7.40002 8.00002 13.0484 2.45543 13.0786 2.42527Z" stroke="url(#paint1_linear_4311_11)" stroke-width="1.11111"/>
<defs>
<linearGradient id="paint0_linear_4311_11" x1="1.18182" y1="0.727295" x2="1.18182" y2="15.2727" gradientUnits="userSpaceOnUse">
<stop stop-color="#9EE1EC"/>
<stop offset="1" stop-color="#E5A7E0"/>
</linearGradient>
<linearGradient id="paint1_linear_4311_11" x1="1.36139" y1="0.727295" x2="1.36139" y2="15.2727" gradientUnits="userSpaceOnUse">
<stop stop-color="#9EE1EC"/>
<stop offset="1" stop-color="#E5A7E0"/>
</linearGradient>
</defs>
</svg>
