<svg width="12" height="18" viewBox="0 0 12 18" fill="none" xmlns="http://www.w3.org/2000/svg">
<path d="M3.06188 17.7273C4.65164 17.7273 5.94188 16.424 5.94188 14.8182V11.9091H3.06188C1.47212 11.9091 0.181885 13.2124 0.181885 14.8182C0.181885 16.424 1.47212 17.7273 3.06188 17.7273Z" fill="#0ACF83"/>
<path d="M0.181885 8.99997C0.181885 7.39415 1.47212 6.09088 3.06188 6.09088H5.94188V11.9091H3.06188C1.47212 11.9091 0.181885 10.6058 0.181885 8.99997Z" fill="#A259FF"/>
<path d="M0.181824 3.18179C0.181824 1.57598 1.47206 0.272705 3.06182 0.272705H5.94182V6.09088H3.06182C1.47206 6.09088 0.181824 4.78761 0.181824 3.18179Z" fill="#F24E1E"/>
<path d="M5.94191 0.272705H8.82191C10.4117 0.272705 11.7019 1.57598 11.7019 3.18179C11.7019 4.78761 10.4117 6.09088 8.82191 6.09088H5.94191V0.272705Z" fill="#FF7262"/>
<path d="M11.7019 8.99997C11.7019 10.6058 10.4117 11.9091 8.82191 11.9091C7.23215 11.9091 5.94191 10.6058 5.94191 8.99997C5.94191 7.39415 7.23215 6.09088 8.82191 6.09088C10.4117 6.09088 11.7019 7.39415 11.7019 8.99997Z" fill="#1ABCFE"/>
</svg>
