<svg width="18" height="17" viewBox="0 0 18 17" fill="none" xmlns="http://www.w3.org/2000/svg">
<path d="M3.92727 0.536291L8.99999 0L14.0727 0.536291L18 5.8083L8.99999 16.2887L0 5.8083L3.92727 0.536291Z" fill="#FDB300"/>
<path d="M3.64545 5.80829L9 16.2887L0 5.80829H3.64545Z" fill="#EA6C00"/>
<path d="M14.3542 5.80823L8.99969 16.2886L17.9997 5.80823H14.3542Z" fill="#EA6C00"/>
<path d="M3.64568 5.80823H14.3548L9.00023 16.2886L3.64568 5.80823Z" fill="#FDAD00"/>
<path d="M9.00023 0L3.92748 0.536284L3.64568 5.8083L9.00023 0Z" fill="#FDD231"/>
<path d="M9.00046 0L14.0732 0.536284L14.355 5.8083L9.00046 0Z" fill="#FDD231"/>
<path d="M17.9997 5.80839L14.0724 0.536377L14.3542 5.80839H17.9997Z" fill="#FDAD00"/>
<path d="M0 5.80839L3.92725 0.536377L3.64545 5.80839H0Z" fill="#FDAD00"/>
<path d="M9.00023 0L3.64568 5.8083H14.3548L9.00023 0Z" fill="#FEEEB7"/>
</svg>
