<svg width="32" height="32" viewBox="0 0 32 32" fill="none" xmlns="http://www.w3.org/2000/svg">
<path d="M6 6C11.5228 0.47715 20.4772 0.47715 26 6V6C31.5228 11.5228 31.5228 20.4772 26 26V26C20.4772 31.5228 11.5228 31.5228 6 26V26C0.47715 20.4772 0.47715 11.5228 6 6V6Z" stroke="url(#paint0_linear_2235_3087)"/>
<path d="M16.5 18.4062C18.0859 18.4062 19.2422 17.2265 19.2422 15.4922V10.2344C19.2422 8.50779 18.0859 7.32029 16.5 7.32029C14.9141 7.32029 13.7578 8.50779 13.7578 10.2344V15.4922C13.7578 17.2265 14.9141 18.4062 16.5 18.4062ZM10.5703 15.6719C10.5703 18.8828 12.7031 21.0859 15.7891 21.3828V22.9844H12.9141C12.5156 22.9844 12.1797 23.3125 12.1797 23.7187C12.1797 24.1172 12.5156 24.4453 12.9141 24.4453H20.0859C20.4922 24.4453 20.8281 24.1172 20.8281 23.7187C20.8281 23.3125 20.4922 22.9844 20.0859 22.9844H17.2188V21.3828C20.2969 21.0859 22.4375 18.8828 22.4375 15.6719V14.125C22.4375 13.7187 22.1094 13.3984 21.7031 13.3984C21.2969 13.3984 20.9609 13.7187 20.9609 14.125V15.6172C20.9609 18.2734 19.1641 20.0312 16.5 20.0312C13.8359 20.0312 12.0391 18.2734 12.0391 15.6172V14.125C12.0391 13.7187 11.7109 13.3984 11.3047 13.3984C10.8984 13.3984 10.5703 13.7187 10.5703 14.125V15.6719Z" fill="white" fill-opacity="0.6"/>
<defs>
<linearGradient id="paint0_linear_2235_3087" x1="2.5" y1="1" x2="31.5" y2="27" gradientUnits="userSpaceOnUse">
<stop stop-color="#A73EE7"/>
<stop offset="1" stop-color="#00EBFF"/>
</linearGradient>
</defs>
</svg>
