<svg width="24" height="16" viewBox="0 0 24 16" fill="none" xmlns="http://www.w3.org/2000/svg">
<path d="M4.40649 15.9668H14.0452C16.3303 15.9668 17.6877 14.6387 17.6877 12.3633V11.1426L21.135 14.0625C21.5159 14.3848 21.9456 14.6094 22.3362 14.6094C23.1565 14.6094 23.7131 14.0039 23.7131 13.125V3.54493C23.7131 2.66602 23.1565 2.07032 22.3362 2.07032C21.9456 2.07032 21.5159 2.28516 21.135 2.6172L17.6877 5.52735V4.28712C17.6877 2.02149 16.3303 0.693367 14.0452 0.693367H4.40649C2.20923 0.693367 0.763916 2.02149 0.763916 4.28712V12.3828C0.763916 14.6582 2.12134 15.9668 4.40649 15.9668ZM4.67993 14.4922C3.18579 14.4922 2.33618 13.7109 2.33618 12.1289V4.52149C2.33618 2.94923 3.18579 2.16798 4.67993 2.16798H13.7717C15.2561 2.16798 16.1155 2.94923 16.1155 4.52149V12.1289C16.1155 13.7109 15.2561 14.4922 13.7717 14.4922H4.67993ZM21.8284 12.7246L17.6877 9.31641V7.35352L21.8284 3.95509C21.9065 3.88673 21.9651 3.84766 22.0432 3.84766C22.1506 3.84766 22.1995 3.92579 22.1995 4.05274V12.6172C22.1995 12.7441 22.1506 12.832 22.0432 12.832C21.9651 12.832 21.9065 12.7832 21.8284 12.7246Z" fill="white" fill-opacity="0.6"/>
</svg>
