<svg width="24" height="25" viewBox="0 0 24 25" fill="none" xmlns="http://www.w3.org/2000/svg">
<path d="M5.92407 20.3887C5.92407 21.0918 6.47095 21.5606 7.36938 21.5606H11.2366C11.3147 23.3379 12.7209 24.9199 14.7229 24.9199C16.7249 24.9199 18.1311 23.3477 18.219 21.5606H22.0764C22.9749 21.5606 23.5217 21.0918 23.5217 20.3887C23.5217 19.4414 22.594 18.6113 21.7834 17.791C21.1584 17.1563 21.0022 15.8574 20.9143 14.7246C20.8264 11.1309 19.8596 8.78712 17.4182 7.89845C17.0959 6.68751 16.0901 5.74024 14.7229 5.74024C13.3557 5.74024 12.3596 6.68751 12.0276 7.89845C9.58618 8.78712 8.61938 11.1309 8.53149 14.7246C8.45337 15.8574 8.28735 17.1563 7.66235 17.791C6.85181 18.6113 5.92407 19.4414 5.92407 20.3887ZM7.85767 20.0762V19.959C8.05298 19.6953 8.59985 19.168 9.0686 18.6309C9.7229 17.8984 10.0354 16.6582 10.1135 14.8711C10.2014 10.9356 11.3831 9.65626 12.9358 9.23634C13.1702 9.17774 13.2971 9.07032 13.3069 8.82618C13.3459 7.86915 13.8831 7.21485 14.7229 7.21485C15.5627 7.21485 16.1096 7.86915 16.1389 8.82618C16.1584 9.07032 16.2854 9.17774 16.51 9.23634C18.0627 9.65626 19.2444 10.9356 19.3323 14.8711C19.4202 16.6582 19.7229 17.8984 20.3772 18.6309C20.8557 19.168 21.3928 19.6953 21.5784 19.959V20.0762H7.85767ZM12.7795 21.5606H16.676C16.6077 22.7813 15.8167 23.5625 14.7229 23.5625C13.6292 23.5625 12.8479 22.7813 12.7795 21.5606Z" fill="white" fill-opacity="0.6"/>
</svg>
