<svg width="18" height="15" viewBox="0 0 18 15" fill="none" xmlns="http://www.w3.org/2000/svg">
<path d="M17.7323 2.20278C17.106 2.48028 16.4333 2.66778 15.726 2.75253C16.4475 2.32053 17.001 1.63503 17.262 0.819026C16.587 1.21953 15.8393 1.51053 15.0435 1.66653C14.406 0.988526 13.4985 0.564026 12.4935 0.564026C10.5645 0.564026 9.00001 2.12853 9.00001 4.05903C9.00001 4.33203 9.03151 4.59753 9.09001 4.85403C6.18526 4.70778 3.61201 3.31653 1.88851 1.20303C1.58851 1.72053 1.41601 2.32053 1.41601 2.95953C1.41601 4.17153 2.03326 5.24178 2.97001 5.86803C2.39701 5.84928 1.85851 5.69253 1.38751 5.43078V5.47578C1.38751 7.16853 2.59126 8.58078 4.19026 8.90178C3.89626 8.98128 3.58801 9.02328 3.27001 9.02328C3.04501 9.02328 2.82526 9.00228 2.61226 8.96178C3.05701 10.3493 4.34701 11.3603 5.87626 11.3873C4.68001 12.3248 3.17326 12.8835 1.53676 12.8835C1.25476 12.8835 0.976509 12.867 0.702759 12.8348C2.24926 13.827 4.08526 14.4045 6.05776 14.4045C12.4853 14.4045 15.999 9.08103 15.999 4.46403C15.999 4.31403 15.9953 4.16253 15.9885 4.01253C16.671 3.51903 17.2635 2.90478 17.7308 2.20503L17.7323 2.20278Z" fill="#1B97F0"/>
</svg>
